One Shot Not • [Fevrier 2011] • Jamaica # Sophie Hunger # Erik Truffaz # Peter Kingsbery

      Format : AVI
      Format/Info : Audio Video Interleave
      File size : 434 MiB
      Duration : 52mn 24s
      Overall bit rate : 1 157 Kbps
      Writing application : MEncoder SVN-r30881(20100311-gcc4.3.3)
      Writing library : MPlayer
   Video
      Format : MPEG-4 Visual
      Format profile : Streaming Video@L1
      Format settings, BVOP : Yes
      Format settings, QPel : No
      Format settings, GMC : No warppoints
      Format settings, Matrix : Default (H.263)
      Codec ID : XVID
      Codec ID/Hint : XviD
      Duration : 52mn 24s
      Bit rate : 1 017 Kbps
      Width : 640 pixels
      Height : 360 pixels
      Display aspect ratio : 16/9
      Frame rate : 25.000 fps
      Resolution : 24 bits
      Colorimetry : 4:2:0
      Scan type : Progressive
      Bits/(Pixel*Frame) : 0.177
      Stream size : 381 MiB (88%)
      Writing library : XviD 1.2.1 (UTC 2008-12-04)
   Audio
      Format : MPEG Audio
      Format version : Version 1
      Format profile : Layer 3
      Codec ID : 55
      Codec ID/Hint : MP3
      Duration : 52mn 24s
      Bit rate mode : Constant
      Bit rate : 128 Kbps
      Channel(s) : 2 channels
      Sampling rate : 44.1 KHz
      Resolution : 16 bits
      Video delay : 40ms
      Stream size : 48.0 MiB (11%)
      Alignment : Aligned on interleaves
      Interleave, duration : 26 ms (0.65 video frame)
      Interleave, preload duration : 522 ms